<?xml version="1.0" standalone="no"?>
<!DOCTYPE svg PUBLIC "-//W3C//DTD SVG 20010904//EN"
 "http://www.w3.org/TR/2001/REC-SVG-20010904/DTD/svg10.dtd">
<svg version="1.0" xmlns="http://www.w3.org/2000/svg"
 width="512.000000pt" height="512.000000pt" viewBox="0 0 512.000000 512.000000"
 preserveAspectRatio="xMidYMid meet">
<metadata>
Created by potrace 1.14, written by Peter Selinger 2001-2017
</metadata>
<g transform="translate(0.000000,512.000000) scale(0.100000,-0.100000)"
fill="#000000" stroke="none">
<path d="M3230 4689 c-87 -136 -227 -437 -255 -552 -4 -15 -9 -27 -12 -27 -3
0 -51 16 -108 35 -131 45 -225 53 -355 31 -52 -9 -117 -24 -144 -32 l-48 -16
-70 68 c-140 138 -280 302 -364 426 -47 71 -89 128 -94 128 -42 0 -52 -551
-15 -830 9 -69 18 -131 21 -138 2 -9 33 12 86 58 189 163 284 228 386 264 70
25 47 4 -52 -48 -52 -26 -128 -76 -170 -110 -41 -33 -115 -92 -163 -131 -135
-107 -299 -274 -324 -330 -15 -35 -23 -80 -29 -178 -6 -112 -12 -141 -35 -192
-36 -80 -83 -260 -95 -367 -22 -189 56 -540 160 -723 16 -27 54 -79 85 -115
31 -36 61 -74 66 -85 6 -12 2 -9 -10 6 -12 15 -33 34 -47 44 -22 14 -28 15
-35 4 -25 -40 5 -122 95 -257 42 -64 124 -148 246 -255 40 -35 46 -43 23 -31
-40 22 -146 114 -200 174 -46 51 -117 159 -157 237 l-26 52 -57 -24 c-32 -13
-122 -55 -201 -93 l-142 -70 -56 -112 c-55 -114 -94 -207 -165 -399 l-38 -105
87 -89 c136 -140 441 -376 450 -348 2 5 -35 146 -82 313 -131 467 -121 454 29
-37 38 -121 74 -242 82 -270 7 -28 23 -58 36 -67 36 -28 266 -143 342 -171
211 -78 408 -116 640 -124 303 -9 537 37 848 169 120 52 139 64 117 78 -29 18
60 297 144 455 46 88 42 72 -27 -85 -55 -127 -83 -219 -94 -312 -6 -49 -5 -51
16 -45 78 20 351 209 505 350 163 148 380 421 359 449 -5 7 -39 49 -75 93 -36
44 -71 92 -78 105 -17 32 -32 44 -100 79 -57 30 -180 116 -192 135 -17 25 6
15 76 -33 41 -28 79 -51 85 -51 28 0 34 186 8 237 -20 37 -85 95 -136 119 -20
10 -63 23 -96 30 -56 11 -57 12 -20 13 55 1 102 -13 160 -50 l50 -31 -29 30
c-26 28 -27 33 -17 63 39 111 -23 199 -184 260 -99 38 -99 50 -1 21 103 -31
77 -9 -39 32 l-62 23 -18 -48 c-28 -79 -88 -163 -156 -218 -90 -72 -95 -64
-10 15 57 53 79 83 111 148 89 187 100 268 61 452 -22 108 -107 382 -122 398
-5 6 -11 -3 -15 -22 -7 -33 -24 -54 -24 -29 0 7 7 37 16 66 14 49 35 222 36
304 0 44 -20 99 -35 94 -5 -1 -22 -38 -37 -80 -26 -74 -40 -102 -40 -80 0 12
43 136 65 187 18 42 17 91 -5 181 -7 28 -28 120 -47 205 -20 85 -55 236 -79
335 -23 99 -55 230 -69 290 -33 140 -54 207 -70 223 -10 11 -22 -2 -65 -69z
m68 -29 c16 -52 44 -242 41 -281 -5 -68 2 -184 10 -164 10 26 16 -10 37 -262
16 -181 16 -211 3 -290 l-14 -87 -55 3 c-60 3 -89 22 -124 83 l-19 33 38 -35
c27 -25 36 -29 30 -15 -27 69 -36 101 -32 119 2 17 8 11 27 -26 13 -27 27 -48
30 -48 3 0 14 37 25 83 28 117 27 418 -3 641 -12 88 -25 163 -30 168 -16 16
-42 -19 -111 -152 -70 -135 -120 -253 -147 -342 -16 -52 -28 -66 -18 -20 l6
27 -16 -28 c-8 -15 -25 -56 -37 -90 -26 -73 -44 -98 -34 -47 12 63 48 151 66
163 9 7 22 33 29 57 26 99 196 461 247 528 28 37 35 34 51 -18z m-1446 -76
c26 -49 46 -94 44 -100 -5 -12 73 -202 144 -354 43 -91 45 -100 31 -100 -8 0
-116 211 -174 340 -91 201 -98 213 -110 201 -8 -8 -14 -70 -18 -194 l-6 -182
3 215 c3 219 8 274 27 267 6 -2 32 -43 59 -93z m-42 -579 c10 -3 26 -15 36
-27 l19 -21 -32 17 c-36 18 -42 9 -18 -28 15 -22 14 -24 -5 -29 -26 -7 -29 -1
-35 75 -5 52 -3 59 6 41 7 -13 20 -25 29 -28z m388 -270 c127 -43 293 -126
392 -196 208 -145 426 -434 541 -715 73 -179 160 -525 158 -633 -1 -87 -15
-109 -23 -36 -19 163 -80 425 -114 491 l-20 39 5 -43 c6 -42 -13 -122 -28
-122 -4 0 -18 17 -30 37 -28 44 -37 27 -15 -28 9 -21 16 -54 15 -72 l0 -32
-19 41 c-25 57 -39 63 -33 15 7 -51 -8 -58 -61 -30 -28 14 -50 20 -62 15 -16
-7 -14 -10 19 -23 52 -21 46 -33 -15 -33 -69 0 -197 -41 -278 -90 -36 -21
-133 -89 -215 -150 -128 -95 -153 -111 -177 -106 -23 5 -28 2 -28 -14 0 -24
-4 -25 -37 -3 -26 17 -26 17 -21 -5 8 -28 -5 -28 -51 0 -27 17 -33 18 -22 5
23 -29 -11 -21 -39 8 -20 21 -25 23 -30 11 -8 -23 -56 23 -114 109 -26 39 -65
93 -87 120 -53 66 -79 121 -78 170 0 35 2 38 12 21 62 -97 144 -164 184 -149
23 8 84 60 103 89 8 12 34 48 56 81 40 56 41 60 28 86 -19 35 -57 54 -130 65
-157 25 -233 -11 -255 -118 l-7 -35 -1 40 c-1 49 11 69 101 161 l69 71 -70 6
c-75 6 -119 22 -131 47 -38 77 -42 93 -26 102 14 8 14 12 1 38 -16 32 -20 80
-6 80 5 0 11 -14 15 -32 10 -52 21 -58 103 -58 l75 0 -7 30 c-9 40 7 45 75 23
50 -17 55 -21 62 -57 7 -30 4 -45 -12 -70 -39 -65 -45 -66 -149 -52 -57 8 -96
18 -102 27 -7 10 -9 8 -7 -11 3 -24 8 -26 90 -36 48 -5 91 -13 95 -17 4 -4 33
18 65 50 49 48 56 61 51 82 -5 22 -4 24 9 14 11 -10 21 -10 46 -1 44 17 161
-3 184 -32 9 -11 19 -20 22 -20 9 0 7 43 -2 57 -18 29 -215 46 -240 21 -14
-14 -27 -4 -19 15 3 8 23 17 45 21 34 5 40 10 46 37 11 58 6 124 -14 167 l-20
43 23 -3 c20 -3 22 2 25 51 4 75 -2 88 -31 68 -22 -14 -28 -14 -65 3 -23 11
-42 23 -42 28 0 14 91 50 122 48 18 -1 36 -13 56 -39 29 -36 83 -153 97 -210
12 -48 25 -40 25 17 0 67 15 113 33 98 6 -5 31 -13 54 -17 24 -4 46 -13 50
-20 5 -7 23 -20 41 -29 21 -11 32 -23 28 -31 -3 -8 -8 -49 -12 -91 -6 -71 -6
-76 12 -72 11 2 19 12 19 25 0 13 5 23 10 23 6 0 10 -17 10 -37 l0 -38 -95 -2
c-52 -2 -106 -5 -119 -9 l-24 -5 7 -112 c6 -107 21 -157 46 -157 14 0 12 31
-4 78 -8 22 -17 65 -21 96 -6 48 -5 56 9 56 9 0 18 -12 22 -27 10 -46 13 -53
24 -53 8 0 9 15 5 44 -6 38 -4 46 13 55 26 14 118 13 206 -3 93 -16 111 -39
110 -140 0 -113 11 -106 -171 -106 -110 -1 -153 -4 -141 -11 10 -5 79 -8 165
-7 l148 3 14 29 c17 35 17 166 1 196 -13 25 -8 35 15 27 11 -5 15 -22 15 -73
l0 -66 33 6 c17 3 65 23 105 42 40 20 75 34 78 32 5 -6 -45 -77 -100 -142 -41
-49 -43 -66 -4 -45 40 22 138 16 186 -11 53 -30 67 -18 24 21 -36 32 -32 37
12 14 16 -9 31 -13 34 -10 18 17 -119 288 -200 393 -34 46 -76 103 -93 125
-90 126 -283 285 -439 364 -133 67 -318 126 -367 118 -52 -9 -245 -104 -312
-154 -119 -89 -136 -124 -148 -312 -8 -130 -10 -142 -53 -245 -55 -132 -59
-125 -10 17 28 84 38 133 49 251 16 164 28 200 92 259 103 97 325 208 418 209
22 0 86 -16 143 -35z m1228 -543 c31 -46 54 -85 52 -88 -3 -2 -18 15 -33 38
-16 24 -54 77 -85 118 -74 98 -83 115 -32 60 23 -25 67 -82 98 -128z m-1411
-99 l30 -7 -35 -7 c-35 -6 -34 -6 17 -14 36 -5 50 -11 46 -21 -8 -22 -58 -26
-121 -10 -33 9 -108 19 -167 23 -78 4 -102 9 -89 16 10 6 50 7 94 4 l78 -6 8
32 8 32 3 -33 c4 -29 7 -32 34 -30 26 2 29 6 29 38 0 35 0 35 18 13 9 -12 31
-25 47 -30z m577 -13 c5 -37 42 -52 113 -44 69 7 176 6 184 -2 3 -3 -19 -27
-49 -54 -42 -36 -56 -44 -58 -31 -10 60 -3 56 -112 58 -56 0 -104 4 -108 7 -7
8 -4 85 5 99 8 13 21 -4 25 -33z m-512 15 c0 -8 -7 -15 -16 -15 -14 0 -14 3
-4 15 7 8 14 15 16 15 2 0 4 -7 4 -15z m690 8 c-1 -25 -24 -37 -77 -41 -46 -3
-62 -1 -72 12 -19 23 -14 25 47 16 37 -4 58 -3 70 6 19 15 32 18 32 7z m-1313
-205 c-3 -8 -6 -5 -6 6 -1 11 2 17 5 13 3 -3 4 -12 1 -19z m428 -335 c36 -3
65 -9 65 -14 0 -4 -24 -11 -54 -14 -66 -8 -126 8 -126 34 0 27 12 33 31 15 11
-10 44 -18 84 -21z m-364 -371 c48 -122 103 -207 240 -375 16 -20 74 -74 127
-118 97 -82 140 -130 66 -75 -120 90 -182 150 -259 253 -47 61 -100 137 -119
170 -40 67 -91 192 -100 243 l-6 35 11 -30 c6 -16 24 -63 40 -103z m1258 -35
c-83 -142 -91 -158 -84 -165 3 -4 24 4 47 16 22 13 42 22 44 19 2 -2 -15 -39
-39 -83 -87 -165 -91 -190 -7 -58 35 57 42 62 82 69 124 19 205 40 228 59 23
20 24 20 10 1 -8 -11 -53 -62 -99 -114 -47 -51 -123 -137 -169 -190 -46 -53
-86 -98 -88 -100 -2 -3 -1 9 2 26 12 58 -15 44 -73 -39 -59 -85 -195 -225
-201 -208 -2 6 10 26 27 46 17 19 31 40 31 47 -1 7 -16 -6 -35 -27 -23 -26
-34 -48 -33 -65 2 -30 -28 -81 -48 -81 -7 0 -19 10 -25 23 -11 20 -11 21 5 8
27 -23 40 -1 27 45 -16 57 -13 97 9 154 19 48 16 62 -7 39 -10 -10 -174 -31
-182 -23 -6 5 69 112 107 152 37 40 38 42 15 42 -19 0 -50 15 -96 45 l-29 19
19 -32 c16 -25 18 -42 13 -78 -4 -25 -11 -49 -16 -54 -6 -6 -37 21 -81 68 -66
73 -69 78 -42 74 30 -4 40 11 15 25 -7 4 -37 30 -67 57 l-54 49 65 -5 c60 -5
136 -31 152 -52 9 -13 110 0 146 18 17 9 43 36 58 61 14 25 32 45 39 45 10 0
126 91 171 134 71 69 113 96 149 96 12 0 29 7 36 16 8 10 15 12 17 5 2 -6 -15
-44 -39 -84z m445 -9 c-31 -55 -104 -145 -165 -203 -75 -71 -72 -67 42 65 36
41 78 92 93 113 27 36 45 50 30 25z m-1974 -742 c17 -71 29 -131 27 -133 -7
-6 -77 263 -76 292 l1 30 9 -30 c5 -16 22 -88 39 -159z m2100 129 c0 -3 -50
-30 -111 -60 -158 -80 -439 -186 -439 -167 0 7 37 23 365 158 197 81 185 76
185 69z m823 -41 c9 -4 17 -10 17 -15 0 -16 -19 -10 -41 12 -12 12 -15 19 -8
15 8 -3 22 -9 32 -12z m-2103 -101 c0 -38 -5 -111 -10 -163 -31 -294 -29 -573
4 -639 7 -14 19 -50 26 -80 11 -48 11 -55 -4 -63 -12 -7 -14 -13 -7 -22 12
-14 -37 -126 -56 -126 -17 0 -16 8 2 61 15 41 15 45 -2 57 -16 12 -17 14 -2
25 12 9 14 18 7 37 -44 116 -49 332 -14 611 14 107 28 233 32 282 8 103 24
116 24 20z m626 19 c-7 -11 -24 -148 -41 -322 -17 -178 -19 -349 -5 -435 12
-73 48 -193 61 -200 15 -10 10 -35 -6 -35 -8 0 -15 -4 -15 -10 0 -5 9 -10 19
-10 17 0 18 -6 14 -42 -15 -122 -36 -148 -41 -51 -2 40 -9 64 -23 79 -12 13
-15 24 -9 30 6 6 0 35 -17 79 -38 101 -43 323 -14 554 12 90 19 166 17 168 -8
8 -159 -37 -209 -63 -54 -27 -61 -29 -52 -14 10 17 84 51 180 84 l90 31 12 70
c16 84 19 95 33 95 6 0 9 -4 6 -8z m-516 -162 c33 -17 60 -37 60 -45 0 -23
-16 -18 -81 25 -87 60 -77 70 21 20z m226 -282 c16 -12 31 -23 33 -25 3 -2
-32 -41 -78 -87 l-82 -83 83 -70 c136 -114 183 -164 167 -174 -26 -16 -94 -10
-115 11 -10 10 -54 52 -97 91 l-79 72 7 -59 c3 -32 9 -71 11 -87 5 -27 5 -27
-44 -27 -62 0 -58 -11 -67 232 -7 173 -7 176 14 188 12 6 34 10 49 8 26 -3 27
-6 32 -67 l5 -63 32 40 c18 22 42 58 54 81 24 47 35 50 75 19z"/>
<path d="M2584 2576 c-14 -11 -16 -18 -8 -26 9 -9 0 -30 -36 -85 -59 -87 -158
-167 -240 -192 -51 -15 -64 -15 -195 1 -85 11 -146 23 -156 32 -21 19 -23 19
-59 -17 -35 -35 -29 -55 10 -35 21 10 31 10 60 -3 52 -22 300 -21 359 2 59 23
147 87 261 191 52 48 101 91 108 97 9 7 9 15 2 29 -13 24 -76 27 -106 6z"/>
<path d="M885 1070 c3 -5 10 -10 16 -10 5 0 9 5 9 10 0 6 -7 10 -16 10 -8 0
-12 -4 -9 -10z"/>
</g>
</svg>
